<svg width="137" height="93" viewBox="0 0 137 93" fill="none" xmlns="http://www.w3.org/2000/svg">
<path d="M50.1667 74.8732C50.1667 73.6986 51.1438 72.7464 52.3492 72.7464C54.7492 72.7464 58.4162 71.8096 61.4664 70.1042C63.9342 68.7243 65.5106 67.1341 66.0793 65.5515C65.9778 65.4818 65.8823 65.4113 65.793 65.3417C65.1277 64.8231 64.556 64.1594 64.1056 63.4842C63.6525 62.8049 63.2698 62.0357 63.032 61.257C62.806 60.517 62.6482 59.5638 62.8905 58.6192C63.2911 57.0582 64.7662 56.4142 65.5187 56.1646C66.4484 55.8561 67.5183 55.7321 68.5 55.7321C69.4817 55.7321 70.5516 55.8561 71.4814 56.1646C72.2338 56.4142 73.7089 57.0582 74.1095 58.6192C74.3518 59.5638 74.194 60.517 73.968 61.257C73.7302 62.0357 73.3475 62.8049 72.8944 63.4842C72.444 64.1594 71.8723 64.8231 71.2071 65.3417C71.1125 65.4154 71.011 65.4901 70.9029 65.5637C71.445 67.1974 72.9737 68.79 75.338 70.1489C78.2641 71.8307 81.8138 72.7464 84.2143 72.7464C85.4197 72.7464 86.3968 73.6986 86.3968 74.8732C86.3968 76.0478 85.4197 77 84.2143 77C80.9402 77 76.6328 75.8315 73.1204 73.8126C71.411 72.8302 69.7196 71.5411 68.4509 69.9546C67.1306 71.5372 65.3801 72.82 63.6388 73.7936C60.0322 75.81 55.6238 77 52.3492 77C51.1438 77 50.1667 76.0478 50.1667 74.8732Z" fill="black"/>
<path d="M41.6476 50.8636C40.7906 50.0375 40.7832 48.6909 41.631 47.856C48.2424 41.3437 59.358 41.4107 65.7119 47.8813C66.5452 48.73 66.5148 50.0763 65.6438 50.8883C64.7729 51.7004 63.3914 51.6708 62.558 50.8221C57.9344 46.1135 49.649 46.0063 44.7341 50.8474C43.8864 51.6825 42.5045 51.6897 41.6476 50.8636Z" fill="black"/>
<path d="M71.3351 50.8684C70.4755 50.0451 70.4636 48.6985 71.3086 47.8608C77.8368 41.3886 88.9434 41.48 95.3747 47.8615C96.2192 48.6995 96.2067 50.0461 95.3467 50.8691C94.4867 51.6921 93.1048 51.6799 92.2603 50.8419C87.5256 46.1437 79.225 46.0803 74.4216 50.8426C73.5767 51.6803 72.1948 51.6919 71.3351 50.8684Z" fill="black"/>
<path d="M28.257 33.5511L63.0167 6.76442L61.7053 4.70197L60.3938 2.63952L43.014 16.0328L25.6342 29.4261L28.257 33.5511ZM72.9834 6.76442L107.743 33.5511L110.366 29.4261L75.6062 2.63952L74.2947 4.70197L72.9834 6.76442ZM111.45 36.3844V78.3983H116.023V39.6282L111.45 36.3844ZM102.76 87.9649H33.2403V93H102.76V87.9649ZM24.5504 78.3983V36.3844L19.9767 39.7636V78.3983H24.5504ZM33.2403 87.9649C28.441 87.9649 24.5504 83.6818 24.5504 78.3983H19.9767C19.9767 86.4626 25.915 93 33.2403 93V87.9649ZM111.45 78.3983C111.45 83.6818 107.559 87.9649 102.76 87.9649V93C110.085 93 116.023 86.4626 116.023 78.3983H111.45ZM107.743 33.5511C110.066 35.3412 111.45 33.2627 111.45 36.3844L116.023 39.6282C116.023 34.8634 113.911 32.1586 110.366 29.4261L107.743 33.5511ZM63.0167 6.76442C66.0088 4.45862 69.9912 4.45862 72.9834 6.76442L74.2947 4.70197L75.6062 2.63952C71.0393 -0.879839 64.9607 -0.879843 60.3938 2.63952L61.7053 4.70197L63.0167 6.76442ZM25.6342 29.4261C22.0884 32.1586 19.9767 34.9989 19.9767 39.7636L24.5504 36.3844C24.5504 33.2627 25.9339 35.3412 28.257 33.5511L25.6342 29.4261Z" fill="#286BCE"/>
<path d="M61.7053 5L9 44.9936M74.2947 5L127 45" stroke="#286BCE" stroke-width="5" stroke-linecap="round" stroke-linejoin="round"/>
</svg>
